<?xml version="1.0" standalone="no"?>
<!DOCTYPE svg PUBLIC "-//W3C//DTD SVG 20010904//EN"
 "http://www.w3.org/TR/2001/REC-SVG-20010904/DTD/svg10.dtd">
<svg version="1.0" xmlns="http://www.w3.org/2000/svg"
 width="364.000000pt" height="364.000000pt" viewBox="0 0 364.000000 364.000000"
 preserveAspectRatio="xMidYMid meet">

<g transform="translate(0.000000,364.000000) scale(0.100000,-0.100000)"
fill="#000000" stroke="none">
<path d="M0 3455 l0 -185 737 0 737 0 22 27 c22 27 22 28 43 9 15 -14 24 -16
33 -8 7 6 29 12 48 14 30 3 35 7 35 28 0 17 -5 24 -15 21 -8 -3 -34 -6 -57 -9
-33 -3 -44 0 -49 12 -4 10 -18 16 -35 16 -40 0 -37 22 5 43 19 9 37 26 41 39
10 33 35 58 57 58 37 0 17 19 -27 26 -53 7 -61 33 -20 60 14 9 25 20 25 25 0
5 -338 9 -790 9 l-790 0 0 -185z"/>
<path d="M1846 3625 c4 -8 10 -12 15 -9 14 8 10 24 -6 24 -9 0 -12 -6 -9 -15z"/>
<path d="M1920 3636 c0 -2 7 -9 15 -16 12 -10 15 -10 15 4 0 9 -7 16 -15 16
-8 0 -15 -2 -15 -4z"/>
<path d="M2010 3634 c0 -14 25 -50 51 -72 16 -13 29 -27 29 -32 0 -14 -31 -20
-52 -9 -30 16 -36 0 -8 -21 13 -10 33 -38 45 -62 13 -28 33 -50 58 -63 40 -22
44 -42 8 -37 -13 2 -35 -1 -50 -6 -14 -6 -35 -13 -46 -17 -30 -9 -3 -21 47
-20 55 2 88 13 88 30 0 7 16 19 35 25 48 16 44 30 -9 30 -25 0 -48 5 -51 10
-3 6 -15 10 -26 10 -27 0 -24 13 11 38 17 13 30 29 30 36 0 7 7 19 15 26 21
17 19 30 -5 30 -25 0 -26 25 -2 42 10 7 22 25 26 41 l6 27 -100 0 c-55 0 -100
-3 -100 -6z"/>
<path d="M2340 3631 c0 -24 119 -42 143 -22 19 15 37 7 37 -19 0 -10 14 -28
30 -40 32 -23 40 -50 15 -50 -20 0 -19 -6 14 -72 16 -31 26 -59 23 -62 -3 -3
-16 -6 -29 -6 -30 0 -26 -24 5 -28 12 -2 22 -10 22 -17 0 -29 43 -45 117 -45
59 0 74 3 82 18 8 14 24 18 86 19 42 1 79 4 82 7 3 2 2 13 -2 24 -5 18 -12 20
-58 15 -41 -4 -56 -2 -66 11 -7 9 -26 16 -42 16 -37 0 -37 15 0 35 16 8 42 34
58 57 17 25 38 44 51 46 39 6 24 21 -28 28 -27 4 -50 11 -50 16 0 6 14 23 30
38 17 15 30 31 30 34 0 3 -124 6 -275 6 -161 0 -275 -4 -275 -9z"/>
<path d="M3156 3625 c4 -8 10 -12 15 -9 14 8 10 24 -6 24 -9 0 -12 -6 -9 -15z"/>
<path d="M3235 3630 c3 -5 10 -10 16 -10 5 0 9 5 9 10 0 6 -7 10 -16 10 -8 0
-12 -4 -9 -10z"/>
<path d="M3327 3609 c10 -17 28 -36 41 -42 12 -6 23 -14 24 -19 5 -30 1 -33
-37 -30 l-39 4 32 -30 c29 -27 32 -36 32 -89 0 -35 -6 -67 -14 -78 -13 -18
-18 -18 -48 -7 -45 16 -58 15 -58 -3 0 -8 -9 -15 -20 -15 -13 0 -25 14 -39 45
-20 45 -22 46 -58 42 -57 -7 -111 -36 -118 -65 -7 -29 2 -43 15 -22 8 13 13
13 30 2 11 -7 25 -10 31 -6 6 3 21 -6 33 -21 16 -19 26 -24 31 -15 5 7 19 10
40 6 25 -5 34 -3 39 10 4 11 14 15 33 11 15 -3 38 -1 52 4 39 15 47 -3 22 -55
-11 -25 -21 -52 -21 -59 0 -27 -37 -50 -67 -42 -15 3 -45 9 -66 12 -26 4 -43
14 -58 34 -11 16 -25 29 -32 29 -6 0 -28 -17 -49 -37 -35 -35 -38 -36 -56 -20
-20 19 -52 23 -52 7 0 -20 -38 -10 -43 11 -5 18 -11 20 -34 15 -15 -3 -47 -8
-70 -10 -50 -5 -100 -51 -81 -74 17 -20 0 -28 -82 -40 -137 -21 -197 -25 -204
-14 -3 6 2 30 13 54 22 53 61 73 121 65 22 -3 40 -1 40 4 0 5 8 9 18 9 9 0 26
7 36 15 16 12 17 15 4 20 -8 3 -26 1 -40 -4 -18 -7 -29 -6 -39 4 -19 19 -69
30 -69 16 0 -12 -36 -14 -94 -4 -26 4 -40 12 -44 25 -6 23 -26 23 -52 1 -22
-19 -120 -29 -120 -12 0 5 -16 9 -35 9 -40 0 -44 -9 -15 -35 14 -13 20 -29 18
-49 -2 -25 -9 -31 -38 -39 -27 -7 -37 -5 -46 7 -6 9 -18 16 -27 16 -9 0 -19 4
-22 10 -7 11 -74 45 -78 39 -2 -2 -8 -16 -14 -30 -9 -22 -16 -25 -45 -22 -46
6 -75 22 -81 44 -7 25 -47 25 -54 0 -7 -28 -60 -48 -84 -33 -23 15 -49 16 -49
2 0 -20 -42 -10 -47 11 -5 17 -11 19 -32 13 -24 -6 -38 -8 -98 -12 -13 -1 -23
-9 -23 -17 0 -8 -10 -19 -21 -26 -21 -11 -21 -11 -2 -30 14 -15 41 -22 104
-28 95 -9 246 -8 256 2 12 13 43 7 43 -8 0 -18 20 -19 54 -4 33 15 58 -4 54
-40 l-3 -26 -165 0 c-142 0 -170 -3 -193 -18 -15 -9 -27 -25 -27 -34 0 -15 53
-97 195 -305 44 -64 49 -68 85 -68 21 0 68 -9 105 -21 36 -11 76 -19 88 -17
22 3 35 35 101 258 14 47 37 124 51 173 26 86 45 112 45 61 0 -15 4 -43 10
-63 10 -39 54 -269 65 -341 14 -90 57 -112 132 -68 26 15 36 17 53 8 39 -21
28 -33 241 282 37 53 76 121 89 150 34 79 33 79 114 73 39 -3 77 -1 85 4 8 5
24 4 42 -2 23 -9 32 -8 48 7 20 18 21 18 39 -4 15 -19 22 -21 39 -12 11 6 31
9 43 7 13 -3 30 1 37 7 10 8 17 8 25 0 7 -7 20 -12 30 -12 23 0 23 -11 -2
-168 -44 -274 -50 -317 -50 -327 0 -6 28 -17 63 -24 34 -7 116 -26 182 -42 66
-16 126 -29 133 -29 9 0 12 124 12 585 l0 585 -166 0 -165 0 18 -31z m-1017
-454 c0 -32 -77 -48 -100 -20 -19 23 -2 35 51 35 36 0 49 -4 49 -15z m-102
-57 c-6 -18 -28 -21 -28 -4 0 9 7 16 16 16 9 0 14 -5 12 -12z"/>
<path d="M1725 3520 c-10 -11 -26 -22 -36 -25 -23 -8 -25 -25 -4 -25 22 0 75
41 75 57 0 19 -14 16 -35 -7z"/>
<path d="M3040 3520 c-6 -11 -19 -20 -30 -20 -10 0 -22 -5 -25 -10 -5 -8 -12
-7 -22 1 -12 10 -16 10 -24 -2 -15 -24 -11 -42 9 -34 9 4 28 10 43 14 30 7 79
44 79 60 0 18 -18 13 -30 -9z"/>
<path d="M1883 3505 c-7 -20 24 -55 49 -55 10 0 18 -7 18 -15 0 -21 27 -19 39
3 10 19 -2 52 -15 39 -4 -4 -22 4 -40 18 -38 29 -43 30 -51 10z"/>
<path d="M2305 3500 c-12 -13 -29 -20 -44 -18 -14 2 -26 -3 -29 -11 -3 -10 2
-12 21 -7 53 13 77 26 77 41 0 20 -3 19 -25 -5z"/>
<path d="M3193 3505 c-7 -20 24 -55 49 -55 10 0 18 -7 18 -15 0 -21 13 -19 34
4 21 23 12 44 -13 36 -11 -3 -26 4 -41 20 -27 29 -38 31 -47 10z"/>
<path d="M2425 3500 c-9 -14 2 -28 35 -45 20 -10 31 -12 35 -4 4 6 5 11 4 12
-2 1 -18 12 -36 24 -19 14 -34 19 -38 13z"/>
<path d="M1630 3492 c0 -6 -3 -17 -6 -26 -4 -11 -1 -16 10 -16 9 0 16 7 16 15
0 8 0 18 1 22 0 4 -4 9 -10 11 -6 2 -11 -1 -11 -6z"/>
<path d="M2362 3399 c-51 -10 -62 -16 -62 -34 0 -17 36 -38 51 -30 5 4 16 1
24 -5 19 -16 72 -23 80 -10 3 5 19 10 36 10 31 0 37 11 15 29 -10 9 -16 8 -26
-4 -20 -24 -38 -17 -51 20 -7 19 -15 35 -19 34 -3 -1 -24 -5 -48 -10z"/>
<path d="M1776 3369 c-57 -21 -53 -18 -61 -50 -6 -25 -5 -26 45 -25 39 1 55
-3 64 -16 7 -10 16 -15 19 -11 4 3 7 1 7 -7 0 -9 3 -10 14 -1 8 7 25 9 40 5
19 -4 28 -2 32 10 4 10 17 15 40 14 43 -2 53 8 28 27 -25 19 -54 19 -54 0 0
-8 -9 -15 -20 -15 -13 0 -25 13 -38 43 -22 50 -43 54 -116 26z"/>
<path d="M1410 3195 c0 -8 7 -15 15 -15 8 0 15 7 15 15 0 8 -7 15 -15 15 -8 0
-15 -7 -15 -15z"/>
<path d="M2717 3203 c-13 -12 -7 -23 13 -23 11 0 20 7 20 15 0 15 -21 21 -33
8z"/>
<path d="M2810 2913 c0 -5 -13 -87 -29 -183 -16 -96 -27 -178 -23 -182 4 -4
45 -8 91 -9 68 -1 85 1 93 14 4 9 14 22 21 29 32 33 67 95 67 121 0 16 5 37
10 48 18 32 -19 69 -119 122 -92 47 -111 54 -111 40z"/>
<path d="M1433 2811 c-51 -37 -83 -81 -90 -125 -4 -28 -2 -35 16 -41 12 -3 24
-18 27 -33 4 -15 16 -39 26 -54 18 -26 25 -28 84 -28 l64 0 0 32 c0 30 -6 70
-34 213 -14 73 -32 80 -93 36z"/>
<path d="M2151 2458 c-25 -26 -24 -46 2 -62 40 -25 74 35 38 68 -18 17 -20 16
-40 -6z"/>
<path d="M0 2354 l0 -33 51 25 c28 14 49 27 47 29 -2 1 -24 5 -50 7 l-48 6 0
-34z"/>
<path d="M1364 2323 c-94 -6 -99 -15 -98 -177 2 -136 20 -246 54 -316 9 -19
27 -69 40 -110 29 -94 50 -139 71 -145 15 -5 47 -52 38 -57 -2 -2 -38 -21 -79
-42 -41 -22 -103 -62 -138 -89 -72 -57 -50 -55 -297 -18 -71 10 -159 22 -195
26 -36 4 -83 16 -105 27 -22 11 -48 24 -57 29 -28 14 -55 11 -95 -11 -31 -16
-33 -20 -15 -20 12 0 22 -4 22 -10 0 -5 -9 -10 -20 -10 -15 0 -20 -7 -20 -27
0 -54 -15 -56 -44 -6 -14 27 -36 60 -48 75 -12 16 -23 47 -26 77 -2 28 -9 54
-15 58 -19 11 -99 14 -112 3 -7 -6 -19 -8 -27 -5 -10 4 -18 -4 -24 -26 -12
-42 -23 -45 -56 -15 -24 23 -89 56 -109 56 -5 0 -9 -146 -9 -327 l0 -328 24
-22 c31 -30 59 -29 76 2 10 19 16 22 26 14 22 -18 70 5 152 74 18 15 41 27 52
27 23 0 49 -35 44 -58 -3 -9 5 -30 16 -47 11 -16 20 -26 20 -22 0 4 9 3 20 -3
13 -7 20 -21 20 -38 0 -15 6 -36 14 -47 7 -11 13 -27 13 -35 -1 -33 37 -69
109 -104 41 -21 78 -45 81 -53 7 -18 -22 -43 -50 -43 -10 0 -62 -21 -115 -47
-53 -26 -108 -46 -122 -45 -14 2 -59 5 -100 8 -41 3 -82 12 -90 19 -8 7 -31
17 -50 23 -31 8 -93 43 -127 72 -10 9 -13 -52 -13 -300 l0 -310 1820 0 1820 0
0 254 0 253 -61 7 c-33 4 -106 18 -161 32 -147 36 -176 61 -133 113 26 30 106
66 293 132 l62 22 0 118 c0 66 -2 119 -5 119 -39 0 -273 34 -282 41 -6 6 -14
22 -18 37 -3 15 -19 43 -35 64 -23 29 -26 37 -15 42 24 9 18 23 -27 73 -62 67
-136 118 -243 168 -52 25 -95 48 -95 51 0 4 16 27 36 51 21 25 45 72 56 106
10 34 27 69 37 77 10 8 27 40 39 70 58 152 59 259 3 435 l-19 60 -121 3 c-66
1 -121 0 -121 -3 0 -17 55 -111 84 -143 61 -68 85 -143 88 -282 1 -69 -2 -82
-38 -153 -52 -106 -151 -219 -221 -252 -65 -30 -119 -43 -196 -46 -57 -2 -76
7 -77 37 0 5 -17 19 -37 30 -35 18 -55 20 -238 17 l-200 -2 -20 -28 c-11 -15
-22 -36 -25 -47 -11 -43 -108 -29 -215 30 -104 57 -263 239 -298 342 -17 48
-16 50 77 322 19 56 28 67 59 82 36 18 63 51 52 67 -4 8 -57 16 -165 25 -19 1
-63 1 -96 -1z m1009 -844 c50 -26 71 -84 47 -130 -16 -30 -90 -26 -150 8 l-49
27 -43 -21 c-93 -46 -188 -29 -188 32 0 44 49 69 158 81 132 15 199 16 225 3z
m-1839 -125 c4 -15 2 -32 -3 -37 -8 -8 -11 -5 -11 10 0 12 -3 28 -6 37 -3 9
-2 16 4 16 5 0 13 -12 16 -26z m-406 -76 c7 -7 12 -19 12 -27 -1 -14 -3 -13
-14 2 -7 9 -20 17 -29 17 -9 0 -19 5 -22 10 -9 14 39 12 53 -2z m1464 -26 c-4
-40 4 -40 43 -2 38 37 46 31 63 -48 8 -37 9 -59 2 -73 -12 -21 -25 -25 -35 -9
-12 20 -45 10 -80 -24 -19 -19 -35 -39 -35 -44 0 -6 -7 -18 -16 -26 -15 -15
-29 -15 -86 1 -27 7 -22 59 12 132 40 84 66 119 93 124 36 7 42 2 39 -31z
m-1541 -57 c-1 -15 -24 -12 -29 3 -3 9 2 13 12 10 10 -1 17 -7 17 -13z m2646
-100 c21 -43 41 -45 50 -4 5 25 10 30 32 27 21 -2 27 -10 33 -43 10 -53 12
-104 6 -110 -3 -3 -20 1 -39 9 -38 16 -137 9 -176 -12 -35 -19 -53 7 -53 79 0
59 0 59 26 53 18 -5 30 -1 45 15 30 32 57 27 76 -14z m608 23 c32 -14 32 -28
1 -28 -25 0 -51 22 -39 33 8 9 8 9 38 -5z m-1451 -152 c53 -44 61 -64 46 -111
-13 -40 -45 -48 -55 -15 -9 30 -53 56 -68 41 -17 -17 -41 -13 -55 9 -7 11 -23
20 -37 20 -22 0 -25 4 -25 33 0 42 10 56 46 66 46 12 98 -3 148 -43z m771
-204 c19 -35 23 -37 63 -34 37 2 44 -1 54 -24 9 -19 18 -25 35 -21 33 6 37 -7
17 -58 l-17 -45 -53 0 c-94 0 -193 58 -194 112 0 29 47 107 65 108 6 0 19 -17
30 -38z m-680 -101 c3 -5 1 -12 -5 -16 -5 -3 -10 1 -10 9 0 18 6 21 15 7z
m-285 -52 c0 -5 -4 -9 -10 -9 -5 0 -10 7 -10 16 0 8 5 12 10 9 6 -3 10 -10 10
-16z m370 -9 c0 -5 -2 -10 -4 -10 -3 0 -8 5 -11 10 -3 6 -1 10 4 10 6 0 11 -4
11 -10z m177 -132 c-3 -8 -6 -5 -6 6 -1 11 2 17 5 13 3 -3 4 -12 1 -19z"/>
<path d="M2090 1440 c-8 -5 -24 -11 -35 -15 -16 -5 -17 -8 -5 -15 8 -5 22 -4
33 2 12 6 46 8 86 4 36 -4 76 -7 89 -7 12 -1 22 -5 22 -10 0 -5 9 -9 20 -9 11
0 20 5 20 10 0 6 -8 10 -18 10 -10 0 -22 4 -27 8 -30 26 -153 41 -185 22z"/>
<path d="M2172 2275 c-16 -35 -15 -49 6 -68 36 -33 92 -8 92 41 0 52 -77 73
-98 27z"/>
<path d="M2190 2051 c0 -6 5 -13 10 -16 6 -3 10 1 10 9 0 9 -4 16 -10 16 -5 0
-10 -4 -10 -9z"/>
<path d="M2050 1980 c0 -13 7 -20 20 -20 13 0 20 7 20 20 0 13 -7 20 -20 20
-13 0 -20 -7 -20 -20z"/>
<path d="M2334 1989 c-3 -6 -2 -15 4 -21 13 -13 32 -2 32 18 0 16 -26 19 -36
3z"/>
<path d="M2100 1745 c-20 -25 -8 -50 25 -50 24 0 31 5 33 24 6 37 -34 55 -58
26z"/>
<path d="M2273 1753 c-16 -6 -17 -49 -2 -58 18 -12 59 4 59 23 0 32 -26 48
-57 35z"/>
<path d="M151 1717 c-53 -26 -61 -42 -27 -51 30 -7 73 8 103 36 45 42 -5 52
-76 15z"/>
<path d="M560 1716 c0 -31 44 -87 81 -105 26 -13 39 -15 39 -8 1 20 30 -25 30
-45 0 -25 25 -33 56 -20 37 17 29 36 -33 86 -77 61 -173 112 -173 92z"/>
<path d="M1666 1701 c-3 -5 0 -13 7 -19 15 -13 42 1 33 17 -9 13 -33 15 -40 2z"/>
<path d="M2005 1689 c-9 -27 14 -52 39 -43 25 10 17 58 -11 62 -15 2 -23 -3
-28 -19z"/>
<path d="M2367 1703 c-11 -10 -8 -38 4 -50 17 -17 49 -3 49 22 0 27 -36 46
-53 28z"/>
<path d="M2715 1700 c-8 -14 3 -30 21 -30 8 0 14 9 14 20 0 21 -24 28 -35 10z"/>
<path d="M1776 1674 c-8 -21 1 -34 24 -34 19 0 30 17 23 38 -7 17 -40 15 -47
-4z"/>
<path d="M2603 1674 c-8 -20 9 -36 30 -28 21 8 22 30 1 38 -22 8 -24 8 -31
-10z"/>
<path d="M1894 1665 c-4 -9 -2 -21 4 -27 15 -15 44 -1 40 19 -4 23 -36 29 -44
8z"/>
<path d="M2484 1666 c-8 -21 3 -36 27 -36 15 0 20 6 17 22 -4 27 -35 37 -44
14z"/>
<path d="M150 1612 c0 -12 19 -26 26 -19 2 2 -2 10 -11 17 -9 8 -15 8 -15 2z"/>
<path d="M0 751 c0 -40 25 -71 57 -71 33 0 4 78 -38 100 -17 10 -19 7 -19 -29z"/>
<path d="M102 652 c4 -19 29 -23 35 -6 2 6 -6 14 -17 17 -16 4 -20 1 -18 -11z"/>
</g>
</svg>
